<?xml version="1.0" ?><!DOCTYPE svg  PUBLIC '-//W3C//DTD SVG 1.1//EN'  'http://www.w3.org/Graphics/SVG/1.1/DTD/svg11.dtd'><svg height="512px" style="enable-background:new 0 0 512 512;" version="1.1" viewBox="0 0 512 512" width="512px" xml:space="preserve" xmlns="http://www.w3.org/2000/svg" xmlns:xlink="http://www.w3.org/1999/xlink"><g id="_x36_01_x2C__cd_x2C__disc_x2C__install_x2C__software_x2C__dvd"><g><path d="M241.973,286.969c-8.63-8.629-20.527-13.96-33.691-13.96    c-13.08,0-24.949,5.276-33.551,13.795l-0.165,0.165c-8.602,8.628-13.933,20.555-13.933,33.717    c0,13.135,5.331,25.061,13.933,33.688c8.63,8.601,20.555,13.932,33.716,13.932c13.136,0,25.062-5.331,33.691-13.932    c8.602-8.628,13.957-20.554,13.957-33.688C255.93,307.523,250.574,295.597,241.973,286.969 M72.674,320.686v7.062l37.976,5.688    l0.383,2.473c0.523,3.407,1.267,6.842,2.172,10.25c0.905,3.436,2.007,6.787,3.214,9.975l0.909,2.309l-30.038,23.906l7.064,12.256    l35.776-14.068l1.569,1.923c2.169,2.721,4.506,5.304,6.977,7.776c2.502,2.5,5.085,4.836,7.805,7.008l1.923,1.565l-14.07,35.777    l12.255,7.063l23.935-30.034l2.309,0.906c3.187,1.209,6.514,2.309,9.946,3.216c3.436,0.906,6.844,1.648,10.251,2.17l2.474,0.385    l5.713,38.003h14.126l5.713-38.003l2.446-0.385c3.408-0.521,6.844-1.236,10.251-2.144c3.432-0.934,6.759-2.033,9.974-3.242    l2.309-0.906l23.931,30.034l12.231-7.063l-14.042-35.777l1.923-1.565c2.664-2.145,5.275-4.479,7.802-7.008    c2.503-2.528,4.84-5.111,6.98-7.776l1.569-1.923l35.747,14.068l7.09-12.256l-30.063-23.935l0.909-2.308    c1.235-3.188,2.309-6.541,3.242-9.975c0.905-3.408,1.649-6.815,2.169-10.223l0.386-2.473l37.978-5.688v-14.151l-37.978-5.716    l-0.386-2.446c-0.52-3.406-1.264-6.814-2.169-10.221c-0.249-0.963-0.522-1.896-0.797-2.831l-0.027-0.056V292.3l-0.028-0.083    l-0.028-0.055v-0.027c-0.712-2.363-1.509-4.672-2.361-6.926l-0.909-2.308l30.063-23.935l-7.09-12.228l-35.747,14.069l-1.569-1.951    c-2.141-2.639-4.478-5.221-6.98-7.749c-2.498-2.474-5.109-4.836-7.829-7.034l-1.896-1.539l14.042-35.805l-12.231-7.063    l-23.931,30.035l-2.309-0.88c-3.215-1.237-6.542-2.308-9.974-3.243c-3.408-0.906-6.844-1.648-10.251-2.17l-2.446-0.385    l-5.713-37.977H201.22l-5.713,37.977l-2.474,0.385c-3.408,0.521-6.815,1.264-10.251,2.17c-3.432,0.936-6.759,2.006-9.946,3.243    l-2.309,0.88l-23.935-30.035l-12.255,7.063l14.07,35.805l-1.923,1.539c-2.72,2.198-5.303,4.533-7.777,7.006    c-2.499,2.474-4.836,5.085-7.005,7.777l-1.569,1.951l-35.776-14.069l-7.064,12.228l30.038,23.935l-0.909,2.308    c-1.207,3.188-2.309,6.514-3.214,9.976c-0.906,3.407-1.649,6.843-2.172,10.249l-0.383,2.446l-37.976,5.716V320.686z     M308.414,288.563c5.58,1.565,11.297,2.803,17.148,3.654c6.292,0.906,12.75,1.375,19.348,1.375c36.93,0,70.4-14.977,94.608-39.186    c24.209-24.209,39.184-57.65,39.184-94.61c0-36.932-14.975-70.401-39.184-94.61c-24.208-24.209-57.679-39.184-94.608-39.184    c-36.963,0-70.404,14.975-94.613,39.184c-24.208,24.209-39.184,57.679-39.184,94.61c0,3.655,0.137,7.228,0.411,10.717    c0.221,2.638,0.495,5.249,0.853,7.776h8.795l5.826,38.883c2.913,0.521,5.742,1.154,8.489,1.896    c2.804,0.742,5.577,1.621,8.325,2.61l24.514-30.749l22.285,12.888l-14.399,36.603c2.253,1.896,4.397,3.874,6.458,5.907    c2.004,2.034,3.955,4.149,5.854,6.403l36.601-14.4l12.887,22.285l-30.746,24.512C307.674,286.254,308.061,287.408,308.414,288.563    z M367.549,137.153c-5.797-5.798-13.791-9.37-22.639-9.37c-8.852,0-16.846,3.572-22.644,9.37    c-5.798,5.771-9.37,13.794-9.37,22.643s3.572,16.872,9.342,22.642c5.798,5.799,13.82,9.371,22.672,9.371    c8.848,0,16.842-3.572,22.639-9.371c5.799-5.77,9.371-13.793,9.371-22.642c0-8.767-3.517-16.707-9.178-22.478L367.549,137.153z     M344.91,121.023c10.714,0,20.414,4.342,27.423,11.348l0.192,0.221c6.896,7.007,11.154,16.625,11.154,27.204    c0,10.688-4.342,20.39-11.375,27.397c-6.98,7.033-16.681,11.375-27.395,11.375c-10.69,0-20.391-4.342-27.398-11.349    c-7.033-7.062-11.375-16.735-11.375-27.424s4.342-20.39,11.346-27.425C324.491,125.365,334.191,121.023,344.91,121.023z     M242.604,159.796c0,1.868-1.541,3.38-3.38,3.38c-1.871,0-3.38-1.512-3.38-3.38c0-30.116,12.199-57.376,31.93-77.134    c19.758-19.729,47.017-31.93,77.136-31.93c1.867,0,3.379,1.512,3.379,3.379c0,1.869-1.512,3.381-3.379,3.381    c-28.252,0-53.833,11.459-72.356,29.951C254.035,105.965,242.604,131.548,242.604,159.796z M447.212,159.796    c0-1.869,1.513-3.38,3.38-3.38c1.87,0,3.379,1.511,3.379,3.38c0,30.116-12.199,57.376-31.93,77.134    c-19.758,19.729-47.016,31.93-77.131,31.93c-1.871,0-3.384-1.511-3.384-3.379c0-1.842,1.513-3.38,3.384-3.38    c28.248,0,53.828-11.46,72.352-29.953C435.753,213.627,447.212,188.045,447.212,159.796z M269.259,159.796    c0,1.868-1.541,3.38-3.38,3.38c-1.87,0-3.38-1.512-3.38-3.38c0-22.726,9.206-43.335,24.125-58.255    c14.95-14.922,35.558-24.154,58.286-24.154c1.867,0,3.379,1.512,3.379,3.379c0,1.869-1.512,3.381-3.379,3.381    c-20.914,0-39.819,8.463-53.503,22.148C277.72,119.979,269.259,138.885,269.259,159.796z M420.557,159.796    c0-1.869,1.513-3.38,3.38-3.38c1.871,0,3.38,1.511,3.38,3.38c0,22.753-9.233,43.361-24.124,58.283l-0.222,0.192    c-14.922,14.783-35.422,23.934-58.061,23.934c-1.871,0-3.384-1.511-3.384-3.38c0-1.868,1.513-3.38,3.384-3.38    c20.828,0,39.678-8.381,53.334-21.982l0.164-0.166C412.096,199.613,420.557,180.68,420.557,159.796z M239.499,255.065    c4.59,1.841,6.542-4.644,2.856-6.128c-2.088-0.962-4.313-1.979-6.482-2.721c-4.015-1.621-6.57,4.645-2.309,6.32    C235.596,253.334,237.519,254.131,239.499,255.065z M260.355,270.014c3.214,3.215,7.886-1.648,4.808-4.699    c-1.702-1.703-3.323-3.242-5.109-4.836c-2.913-2.912-7.749,1.787-4.397,5.111C257.306,267.046,258.79,268.476,260.355,270.014z     M274.727,291.283c1.565,3.901,7.833,1.428,6.155-2.748c-0.934-2.117-1.979-4.314-3.134-6.32    c-2.418-4.012-8.051-0.303-5.878,3.324C272.912,287.354,273.874,289.359,274.727,291.283z M280.773,316.233    c0,1.676,1.646,3.161,3.323,3.161c2.061,0,3.436-1.539,3.436-3.601c-0.137-2.335-0.414-4.671-0.743-6.979    c-0.962-4.754-7.472-2.969-6.676,1.018C280.443,311.892,280.661,314.146,280.773,316.233z M277.805,341.733    c-0.632,1.622,0.494,3.271,1.677,3.957c2.278,0.907,3.983,0.056,4.809-2.005c0.659-2.281,1.235-4.535,1.73-6.842    c0.881-4.398-5.742-5.689-6.623-1.348C278.987,337.612,278.436,339.701,277.805,341.733z M266.152,364.596    c-2.72,3.601,2.721,7.584,5.359,4.068c1.456-1.897,2.72-3.766,4.012-5.799c2.39-3.93-3.517-7.254-5.717-3.572    C268.655,361.135,267.444,362.865,266.152,364.596z M247.247,381.99c-3.681,2.199-0.273,8.024,3.657,5.689    c1.976-1.292,3.846-2.611,5.741-4.04c3.464-2.611-0.466-8.106-4.124-5.358C250.876,379.6,249.034,380.836,247.247,381.99z     M223.478,391.719c-4.092,0.824-3.243,7.363,1.428,6.594c2.281-0.467,4.619-1.07,6.844-1.786c4.727-1.868,1.512-7.858-2.032-6.429    C227.766,390.756,225.485,391.307,223.478,391.719z M197.813,392.569c-3.875-0.769-5.77,5.716-0.934,6.678    c2.337,0.33,4.671,0.577,7.033,0.714c4.864,0,4.369-6.759,0.33-6.759C202.073,393.064,199.985,392.872,197.813,392.569z     M173.495,384.463c-3.738-2.225-6.952,3.71-3.352,5.854c2.06,1.182,4.285,2.199,6.458,3.188c4.313,1.73,6.594-4.645,2.664-6.21    C177.286,386.359,175.39,385.508,173.495,384.463z M153.491,368.361c-3.573-3.545-7.833,1.703-5.114,4.451    c1.513,1.759,3.215,3.49,4.864,5.111c3.05,3.051,7.861-1.704,4.728-4.863C156.457,371.687,154.807,369.928,153.491,368.361z     M140.299,346.323c-1.702-4.26-7.914-1.595-6.321,2.418c0.8,2.144,1.762,4.452,2.776,6.484c1.541,3.792,7.833,1.43,6.075-2.967    C141.892,350.39,141.015,348.273,140.299,346.323z M135.627,321.097c0-4.368-6.759-4.313-6.759,0.056    c0,2.281,0.109,4.727,0.358,7.035c0.905,4.479,6.731,3.874,6.731-0.66C135.712,325.467,135.627,323.186,135.627,321.097z     M139.997,295.789c1.649-4.094-4.945-6.457-6.321-2.363c-0.849,2.115-1.537,4.589-2.141,6.787    c-0.961,4.863,5.77,5.606,6.538,1.732C138.597,299.856,139.285,297.795,139.997,295.789z M152.94,273.613    c2.885-2.912-1.814-7.721-5.166-4.369c-1.484,1.759-3.05,3.682-4.313,5.579c-2.53,3.352,2.692,7.638,5.524,3.874    C150.248,276.938,151.512,275.263,152.94,273.613z M172.751,257.291c3.987-2.391,0.33-8.051-3.323-5.881    c-2.116,1.209-3.983,2.418-5.991,3.738c-3.791,2.83,0.523,8.023,3.846,5.522C169.098,259.462,170.884,258.363,172.751,257.291z     M196.988,248.91c4.727-0.962,2.997-7.475-1.042-6.678c-2.253,0.303-4.671,0.824-6.899,1.402    c-1.179,0.219-2.253,1.346-2.471,2.527c-0.523,2.528,1.593,4.507,4.092,4.012C192.731,249.652,194.899,249.185,196.988,248.91z     M208.257,241.271c-1.267,0-2.583,0.825-3.025,1.896c-1.126,2.254,0.579,4.865,3.025,4.865c2.141-0.027,4.341,0.082,6.482,0.273    c5.142,0,4.317-6.731,0.551-6.731C212.953,241.381,210.619,241.299,208.257,241.271z M49.564,485.999    c-1.867,0-3.379-1.512-3.379-3.381c0-1.868,1.513-3.38,3.379-3.38h327.11c1.867,0,3.38,1.512,3.38,3.38    c0,1.869-1.513,3.381-3.38,3.381H49.564z M241.092,463.823c-1.839,0-3.352-1.512-3.352-3.38c0-1.869,1.513-3.381,3.352-3.381    h226.373c1.867,0,3.38,1.512,3.38,3.381c0,1.868-1.513,3.38-3.38,3.38H241.092z M36.677,464.482c-1.871,0-3.379-1.512-3.379-3.38    c0-1.841,1.509-3.38,3.379-3.38h107.25c1.867,0,3.379,1.539,3.379,3.38c0,1.868-1.512,3.38-3.379,3.38H36.677z M181.904,187.687    c0.547,1.786-0.442,3.683-2.225,4.232c-1.786,0.55-3.685-0.439-4.232-2.226c-1.074-3.518-2.063-7.145-2.913-10.883    c-0.825-3.682-1.513-7.363-2.06-11.045c-2.559-17.697-1.706-35.092,2.088-51.552c3.927-17.063,10.992-33.111,20.636-47.373    c1.042-1.538,3.131-1.924,4.671-0.88c1.537,1.045,1.951,3.133,0.905,4.672c-9.177,13.547-15.908,28.825-19.646,45.065    c-3.601,15.663-4.425,32.261-1.979,49.104c0.523,3.628,1.183,7.145,1.951,10.525C179.869,180.789,180.83,184.252,181.904,187.687z     M208.281,266.277c15.007,0,28.606,6.072,38.443,15.938c9.865,9.838,15.939,23.439,15.939,38.471    c0,15.003-6.074,28.605-15.912,38.471c-9.837,9.836-23.464,15.91-38.471,15.91c-15.031,0-28.63-6.074-38.468-15.91    c-9.84-9.865-15.94-23.468-15.94-38.471c0-15.031,6.1-28.662,15.94-38.498l0.19-0.166    C179.84,272.268,193.362,266.277,208.281,266.277z" style="fill-rule:evenodd;clip-rule:evenodd;"/></g></g><g id="Layer_1"/></svg>